<?xml version="1.0" encoding="UTF-8" standalone="no"?>
<svg
   viewBox="0 0 500 500"
   version="1.1"
   id="svg71"
   xmlns="http://www.w3.org/2000/svg"
   xmlns:svg="http://www.w3.org/2000/svg">
  <defs
     id="defs71" />
  <g
     id="g71"
     transform="matrix(1.8292907,0,0,1.8292907,-60.320874,-246.93597)">
    <g
       id="freepik--Device--inject-2">
      <rect
         x="262.54001"
         y="128.53"
         width="3.0999999"
         height="16.01"
         rx="0.69"
         transform="rotate(90,264.085,136.535)"
         style="fill:#263238"
         id="rect1" />
      <path
         d="m 272.52,204.51 h 25.25 a 0.69,0.69 0 0 1 0.69,0.69 v 2.74 h -26.63 v -2.74 a 0.69,0.69 0 0 1 0.69,-0.69 z"
         transform="rotate(90,285.15,206.23)"
         style="fill:#263238"
         id="path1" />
      <path
         d="m 272.52,174.51 h 25.25 a 0.69,0.69 0 0 1 0.69,0.69 v 2.74 h -26.63 v -2.74 a 0.69,0.69 0 0 1 0.69,-0.69 z"
         transform="rotate(90,285.15,176.23)"
         style="fill:#263238"
         id="path2" />
      <rect
         x="52.529999"
         y="175.39"
         width="272.06"
         height="193.8"
         rx="6.6300001"
         transform="rotate(90,188.565,272.295)"
         style="fill:#263238"
         id="rect2" />
      <rect
         x="55.029999"
         y="177.89"
         width="272.06"
         height="188.8"
         rx="6.6300001"
         transform="rotate(90,191.065,272.295)"
         style="opacity:0.2;fill:#ffffff"
         id="rect3" />
      <circle
         cx="194.56"
         cy="141.3"
         r="1.78"
         style="opacity:0.6;isolation:isolate;fill:#ffffff"
         id="circle3" />
      <circle
         cx="186.67999"
         cy="141.3"
         r="0.88999999"
         style="opacity:0.6;isolation:isolate;fill:#ffffff"
         id="circle4" />
      <circle
         cx="191.06"
         cy="398.59"
         r="5.46"
         style="fill:#ffffff"
         id="circle5" />
      <rect
         x="69.639999"
         y="179.25"
         width="242.84"
         height="177.89999"
         transform="rotate(90,191.065,268.195)"
         style="fill:#655eab"
         id="rect5" />
      <rect
         x="73.419998"
         y="183.03"
         width="235.28"
         height="177.89999"
         transform="rotate(90,191.065,271.975)"
         style="opacity:0.6;isolation:isolate;fill:#ffffff"
         id="rect6" />
      <circle
         cx="263.92001"
         cy="150.53"
         r="1.6799999"
         style="opacity:0.6;isolation:isolate;fill:#ffffff"
         id="circle6" />
      <circle
         cx="269.72"
         cy="150.53"
         r="1.6799999"
         style="opacity:0.6;isolation:isolate;fill:#ffffff"
         id="circle7" />
      <circle
         cx="275.51999"
         cy="150.53"
         r="1.6799999"
         style="opacity:0.6;isolation:isolate;fill:#ffffff"
         id="circle8" />
      <rect
         x="102.12"
         y="154.34"
         width="177.89999"
         height="10.76"
         style="opacity:0.2;isolation:isolate"
         id="rect8" />
      <path
         d="M 274.63,162.29 H 219.57 A 2.57,2.57 0 0 1 217,159.72 v 0 a 2.57,2.57 0 0 1 2.57,-2.57 h 55.06 a 2.57,2.57 0 0 1 2.57,2.57 v 0 a 2.57,2.57 0 0 1 -2.57,2.57 z"
         style="opacity:0.6;isolation:isolate;fill:#ffffff"
         id="path8" />
      <rect
         x="102.12"
         y="165.10001"
         width="130.21001"
         height="224.52"
         transform="rotate(180,167.225,277.36)"
         style="opacity:0.6;isolation:isolate;fill:#ffffff"
         id="rect9" />
      <path
         d="M 133.72,186.93 H 126 l -1.59,3.62 h -2.13 l 6.55,-14.47 h 2 l 6.57,14.47 h -2.16 z m -0.72,-1.65 -3.12,-7.09 -3.12,7.09 z"
         style="fill:#263238"
         id="path9" />
      <path
         d="m 149.3,190.55 -3.12,-4.45 c -0.29,0 -0.6,0.05 -0.91,0.05 h -3.57 v 4.4 h -2.07 v -14.47 h 5.64 c 3.76,0 6,1.9 6,5 a 4.56,4.56 0 0 1 -3.19,4.56 l 3.43,4.86 z m -0.06,-9.42 c 0,-2.07 -1.39,-3.25 -4,-3.25 h -3.54 v 6.51 h 3.51 c 2.64,0 4.03,-1.2 4.03,-3.26 z"
         style="fill:#263238"
         id="path10" />
      <path
         d="m 157.32,177.88 h -5 v -1.8 h 12 v 1.8 h -5 v 12.67 h -2 z"
         style="fill:#263238"
         id="path11" />
      <path
         d="m 166.57,176.08 h 2.07 v 14.47 h -2.07 z"
         style="fill:#263238"
         id="path12" />
      <path
         d="m 171.8,183.32 a 7.31,7.31 0 0 1 7.66,-7.4 7.14,7.14 0 0 1 5.5,2.25 l -1.34,1.3 a 5.36,5.36 0 0 0 -4.08,-1.71 5.56,5.56 0 1 0 4.08,9.38 l 1.34,1.3 a 7.17,7.17 0 0 1 -5.52,2.27 7.31,7.31 0 0 1 -7.64,-7.39 z"
         style="fill:#263238"
         id="path13" />
      <path
         d="M 187.91,176.08 H 190 v 12.67 h 7.83 v 1.8 h -9.9 z"
         style="fill:#263238"
         id="path14" />
      <path
         d="m 210.68,188.75 v 1.8 h -10.5 v -14.47 h 10.21 v 1.8 h -8.14 v 4.44 h 7.25 v 1.76 h -7.25 v 4.67 z"
         style="fill:#263238"
         id="path15" />
      <g
         style="opacity:0.2;isolation:isolate"
         id="g18">
        <rect
           x="236.67"
           y="169.46001"
           width="39.099998"
           height="28.17"
           id="rect15" />
        <path
           d="m 237.17,200.55 h 14.56 a 0.5,0.5 0 0 0 0.5,-0.5 0.51,0.51 0 0 0 -0.5,-0.5 h -14.56 a 0.5,0.5 0 0 0 -0.5,0.5 0.5,0.5 0 0 0 0.5,0.5 z"
           id="path16" />
        <path
           d="m 237.17,203.14 h 38.1 a 0.5,0.5 0 0 0 0,-1 h -38.1 a 0.5,0.5 0 1 0 0,1 z"
           id="path17" />
        <path
           d="m 275.27,204.73 h -38.1 a 0.5,0.5 0 0 0 -0.5,0.5 0.5,0.5 0 0 0 0.5,0.5 h 38.1 a 0.51,0.51 0 0 0 0.5,-0.5 0.5,0.5 0 0 0 -0.5,-0.5 z"
           id="path18" />
      </g>
      <g
         style="opacity:0.2;isolation:isolate"
         id="g21">
        <rect
           x="236.67"
           y="219.46001"
           width="39.099998"
           height="28.17"
           id="rect18" />
        <path
           d="m 237.17,250.55 h 14.56 a 0.5,0.5 0 0 0 0.5,-0.5 0.51,0.51 0 0 0 -0.5,-0.5 h -14.56 a 0.5,0.5 0 0 0 -0.5,0.5 0.5,0.5 0 0 0 0.5,0.5 z"
           id="path19" />
        <path
           d="m 237.17,253.14 h 38.1 a 0.5,0.5 0 0 0 0,-1 h -38.1 a 0.5,0.5 0 1 0 0,1 z"
           id="path20" />
        <path
           d="m 275.27,254.73 h -38.1 a 0.5,0.5 0 0 0 -0.5,0.5 0.5,0.5 0 0 0 0.5,0.5 h 38.1 a 0.51,0.51 0 0 0 0.5,-0.5 0.5,0.5 0 0 0 -0.5,-0.5 z"
           id="path21" />
      </g>
      <g
         style="opacity:0.2;isolation:isolate"
         id="g24">
        <rect
           x="236.67"
           y="269.45999"
           width="39.099998"
           height="28.17"
           id="rect21" />
        <path
           d="m 237.17,300.55 h 14.56 a 0.5,0.5 0 0 0 0.5,-0.5 0.51,0.51 0 0 0 -0.5,-0.5 h -14.56 a 0.5,0.5 0 0 0 -0.5,0.5 0.5,0.5 0 0 0 0.5,0.5 z"
           id="path22" />
        <path
           d="m 237.17,303.14 h 38.1 a 0.5,0.5 0 0 0 0,-1 h -38.1 a 0.5,0.5 0 1 0 0,1 z"
           id="path23" />
        <path
           d="m 275.27,304.73 h -38.1 a 0.5,0.5 0 0 0 -0.5,0.5 0.5,0.5 0 0 0 0.5,0.5 h 38.1 a 0.51,0.51 0 0 0 0.5,-0.5 0.5,0.5 0 0 0 -0.5,-0.5 z"
           id="path24" />
      </g>
      <g
         style="opacity:0.2;isolation:isolate"
         id="g27">
        <rect
           x="236.67"
           y="319.45999"
           width="39.099998"
           height="28.17"
           id="rect24" />
        <path
           d="m 237.17,350.55 h 14.56 a 0.5,0.5 0 0 0 0.5,-0.5 0.51,0.51 0 0 0 -0.5,-0.5 h -14.56 a 0.5,0.5 0 0 0 -0.5,0.5 0.5,0.5 0 0 0 0.5,0.5 z"
           id="path25" />
        <path
           d="m 237.17,353.14 h 38.1 a 0.5,0.5 0 0 0 0,-1 h -38.1 a 0.5,0.5 0 1 0 0,1 z"
           id="path26" />
        <path
           d="m 275.27,354.73 h -38.1 a 0.5,0.5 0 0 0 -0.5,0.5 0.5,0.5 0 0 0 0.5,0.5 h 38.1 a 0.51,0.51 0 0 0 0.5,-0.5 0.5,0.5 0 0 0 -0.5,-0.5 z"
           id="path27" />
      </g>
      <rect
         x="110.09"
         y="201.25999"
         width="113.93"
         height="63.580002"
         style="opacity:0.2;isolation:isolate"
         id="rect27" />
      <polygon
         points="110.09,264.84 110.09,243.26 139.49,213.86 167.32,241.68 182.53,226.47 220.91,264.84 "
         style="opacity:0.2;isolation:isolate"
         id="polygon27" />
      <circle
         cx="204.87"
         cy="218.91"
         r="9.0699997"
         style="opacity:0.2;isolation:isolate"
         id="circle27" />
      <path
         d="M 223,283.86 H 121 a 0.5,0.5 0 0 1 -0.5,-0.5 0.5,0.5 0 0 1 0.5,-0.5 h 102 a 0.5,0.5 0 0 1 0.5,0.5 0.5,0.5 0 0 1 -0.5,0.5 z"
         id="path28" />
      <path
         d="M 223,288.05 H 111 a 0.5,0.5 0 1 1 0,-1 h 112 a 0.5,0.5 0 0 1 0,1 z"
         id="path29" />
      <path
         d="M 223,292.24 H 111 a 0.5,0.5 0 1 1 0,-1 h 112 a 0.5,0.5 0 1 1 0,1 z"
         id="path30" />
      <path
         d="M 223,296.43 H 111 a 0.5,0.5 0 0 1 -0.5,-0.5 0.5,0.5 0 0 1 0.5,-0.5 h 112 a 0.5,0.5 0 0 1 0.5,0.5 0.5,0.5 0 0 1 -0.5,0.5 z"
         id="path31" />
      <path
         d="M 223,300.62 H 111 a 0.5,0.5 0 0 1 -0.5,-0.5 0.5,0.5 0 0 1 0.5,-0.5 h 112 a 0.5,0.5 0 0 1 0.5,0.5 0.5,0.5 0 0 1 -0.5,0.5 z"
         id="path32" />
      <path
         d="M 223,304.81 H 111 a 0.5,0.5 0 0 1 -0.5,-0.5 0.5,0.5 0 0 1 0.5,-0.5 h 112 a 0.5,0.5 0 0 1 0.5,0.5 0.5,0.5 0 0 1 -0.5,0.5 z"
         id="path33" />
      <path
         d="M 223,309 H 111 a 0.5,0.5 0 0 1 -0.5,-0.5 0.5,0.5 0 0 1 0.5,-0.5 h 112 a 0.5,0.5 0 0 1 0.5,0.5 0.5,0.5 0 0 1 -0.5,0.5 z"
         id="path34" />
      <path
         d="M 223,313.2 H 111 a 0.5,0.5 0 0 1 -0.5,-0.5 0.5,0.5 0 0 1 0.5,-0.5 h 112 a 0.5,0.5 0 0 1 0.5,0.5 0.5,0.5 0 0 1 -0.5,0.5 z"
         id="path35" />
      <path
         d="M 223,317.39 H 111 a 0.5,0.5 0 0 1 -0.5,-0.5 0.5,0.5 0 0 1 0.5,-0.5 h 112 a 0.5,0.5 0 0 1 0.5,0.5 0.5,0.5 0 0 1 -0.5,0.5 z"
         id="path36" />
      <path
         d="M 223,321.58 H 111 a 0.5,0.5 0 0 1 -0.5,-0.5 0.5,0.5 0 0 1 0.5,-0.5 h 112 a 0.5,0.5 0 0 1 0.5,0.5 0.5,0.5 0 0 1 -0.5,0.5 z"
         id="path37" />
      <path
         d="m 163,325.77 h -52 a 0.5,0.5 0 1 1 0,-1 h 52 a 0.5,0.5 0 1 1 0,1 z"
         id="path38" />
      <path
         d="M 223,336 H 121 a 0.5,0.5 0 1 1 0,-1 h 102 a 0.5,0.5 0 0 1 0,1 z"
         id="path39" />
      <path
         d="M 223,340.15 H 111 a 0.5,0.5 0 0 1 -0.5,-0.5 0.5,0.5 0 0 1 0.5,-0.5 h 112 a 0.5,0.5 0 0 1 0.5,0.5 0.5,0.5 0 0 1 -0.5,0.5 z"
         id="path40" />
      <path
         d="M 223,344.34 H 111 a 0.5,0.5 0 0 1 -0.5,-0.5 0.5,0.5 0 0 1 0.5,-0.5 h 112 a 0.5,0.5 0 0 1 0.5,0.5 0.5,0.5 0 0 1 -0.5,0.5 z"
         id="path41" />
      <path
         d="M 223,348.53 H 111 a 0.5,0.5 0 0 1 -0.5,-0.5 0.5,0.5 0 0 1 0.5,-0.5 h 112 a 0.5,0.5 0 0 1 0.5,0.5 0.5,0.5 0 0 1 -0.5,0.5 z"
         id="path42" />
      <path
         d="M 223,352.72 H 111 a 0.5,0.5 0 0 1 -0.5,-0.5 0.5,0.5 0 0 1 0.5,-0.5 h 112 a 0.5,0.5 0 0 1 0.5,0.5 0.5,0.5 0 0 1 -0.5,0.5 z"
         id="path43" />
      <path
         d="M 223,356.92 H 111 a 0.5,0.5 0 0 1 -0.5,-0.5 0.5,0.5 0 0 1 0.5,-0.5 h 112 a 0.5,0.5 0 0 1 0.5,0.5 0.5,0.5 0 0 1 -0.5,0.5 z"
         id="path44" />
      <path
         d="m 203,361.11 h -92 a 0.5,0.5 0 0 1 -0.5,-0.5 0.5,0.5 0 0 1 0.5,-0.5 h 92 a 0.5,0.5 0 0 1 0.5,0.5 0.5,0.5 0 0 1 -0.5,0.5 z"
         id="path45" />
      <path
         d="M 223,268.7 H 111 a 0.5,0.5 0 0 1 -0.5,-0.5 0.5,0.5 0 0 1 0.5,-0.5 h 112 a 0.5,0.5 0 0 1 0.5,0.5 0.5,0.5 0 0 1 -0.5,0.5 z"
         id="path46" />
      <path
         d="M 195.08,272.2 H 111 a 0.5,0.5 0 1 1 0,-1 h 84.06 a 0.5,0.5 0 0 1 0,1 z"
         id="path47" />
    </g>
    <g
       id="freepik--Plant--inject-2"
       transform="translate(0,-8.260004)">
      <path
         d="m 80.34,383.29 c 0,-0.36 -1.22,-36.06 -7,-41.7 -5.62,-5.46 -12.08,-0.2 -12.35,0 l -0.64,-0.77 c 0.07,-0.06 7.43,-6.06 13.69,0 6.08,5.92 7.27,40.9 7.32,42.39 z"
         style="fill:#655eab"
         id="path48" />
      <path
         d="m 80.84,390.31 c 0,-0.43 -4,-42.9 11.54,-60.71 l 0.75,0.66 c -15.23,17.49 -11.34,59.53 -11.3,59.95 z"
         style="fill:#655eab"
         id="path49" />
      <path
         d="m 80.35,385.82 -1,-0.07 c 0,-0.48 3,-48.24 -8.33,-58.68 l 0.68,-0.74 c 11.72,10.77 8.78,57.5 8.65,59.49 z"
         style="fill:#655eab"
         id="path50" />
      <path
         d="m 81.83,385.79 h -1 c 0,-1.32 0.38,-32.3 9.2,-37.35 a 6.25,6.25 0 0 1 5.73,-0.56 c 5.33,2.21 8,11.69 8.09,12.09 l -1,0.27 c 0,-0.1 -2.62,-9.42 -7.51,-11.44 a 5.35,5.35 0 0 0 -4.85,0.5 c -8.29,4.76 -8.65,36.17 -8.66,36.49 z"
         style="fill:#655eab"
         id="path51" />
      <path
         d="m 78.41,385.81 -1,-0.05 c 0,-0.25 1.33,-24.45 -5.2,-33 -1.57,-2.06 -3.29,-3 -5.08,-2.91 -4.26,0.3 -7.84,6.54 -7.87,6.61 l -0.87,-0.5 c 0.15,-0.27 3.88,-6.77 8.67,-7.11 2.16,-0.14 4.15,1 6,3.3 6.7,8.85 5.41,32.65 5.35,33.66 z"
         style="fill:#655eab"
         id="path52" />
      <path
         d="m 79.75,389.11 c -0.17,-2.35 -4.27,-57.67 2.94,-67.43 l 0.81,0.59 c -7,9.47 -2.79,66.19 -2.75,66.76 z"
         style="fill:#655eab"
         id="path53" />
      <path
         d="m 97.7,353.52 c 0,0 -4.32,1.59 -3,5.35 1.32,3.76 15,10 15,10 0,0 5.73,-5.25 0.47,-13.78 -5.26,-8.53 -12.35,-4.27 -12.47,-1.57 z"
         style="fill:#655eab"
         id="path54" />
      <path
         d="m 97.7,353.52 c 0,0 -4.32,1.59 -3,5.35 1.32,3.76 15,10 15,10 0,0 5.73,-5.25 0.47,-13.78 -5.26,-8.53 -12.35,-4.27 -12.47,-1.57 z"
         style="opacity:0.2;isolation:isolate;fill:#ffffff"
         id="path55" />
      <path
         d="m 78.91,346.36 c 0,0 4.6,-0.2 4.86,3.77 0.26,3.97 -10,14.94 -10,14.94 0,0 -7.3,-2.64 -5.73,-12.54 1.57,-9.9 9.72,-8.61 10.87,-6.17 z"
         style="fill:#655eab"
         id="path56" />
      <path
         d="m 78.91,346.36 c 0,0 4.6,-0.2 4.86,3.77 0.26,3.97 -10,14.94 -10,14.94 0,0 -7.3,-2.64 -5.73,-12.54 1.57,-9.9 9.72,-8.61 10.87,-6.17 z"
         style="opacity:0.2;isolation:isolate;fill:#ffffff"
         id="path57" />
      <path
         d="m 75,327.37 c 0,0 3.07,-0.33 2.82,-2.2 -0.25,-1.87 -11.92,-6.68 -18.82,1.1 0,0 4.41,7.58 10.79,7.68 6.38,0.1 5.21,-6.58 5.21,-6.58 z"
         style="fill:#655eab"
         id="path58" />
      <path
         d="m 75,327.37 c 0,0 3.07,-0.33 2.82,-2.2 -0.25,-1.87 -11.92,-6.68 -18.82,1.1 0,0 4.41,7.58 10.79,7.68 6.38,0.1 5.21,-6.58 5.21,-6.58 z"
         style="opacity:0.2;isolation:isolate;fill:#ffffff"
         id="path59" />
      <path
         d="m 80.73,322.83 c 0,0 -2.78,1.34 -3.56,-0.38 -0.78,-1.72 6.59,-12 16.56,-9 0,0 0.26,8.77 -5.1,12.23 -5.36,3.46 -7.9,-2.85 -7.9,-2.85 z"
         style="fill:#655eab"
         id="path60" />
      <path
         d="m 80.73,322.83 c 0,0 -2.78,1.34 -3.56,-0.38 -0.78,-1.72 6.59,-12 16.56,-9 0,0 0.26,8.77 -5.1,12.23 -5.36,3.46 -7.9,-2.85 -7.9,-2.85 z"
         style="opacity:0.2;isolation:isolate;fill:#ffffff"
         id="path61" />
      <path
         d="m 66.2,352 c 0,0 2.12,-1.71 -0.17,-2.54 -2.29,-0.83 -13.5,-0.6 -13.62,10.51 0,0 13.07,2.17 14.68,-2.06 C 68.7,353.68 66.2,352 66.2,352 Z"
         style="fill:#655eab"
         id="path62" />
      <path
         d="m 66.2,352 c 0,0 2.12,-1.71 -0.17,-2.54 -2.29,-0.83 -13.5,-0.6 -13.62,10.51 0,0 13.07,2.17 14.68,-2.06 C 68.7,353.68 66.2,352 66.2,352 Z"
         style="opacity:0.2;isolation:isolate;fill:#ffffff"
         id="path63" />
      <path
         d="m 92.84,327.09 c 0,0 -2.12,-1.71 0.16,-2.55 2.28,-0.84 13.5,-0.59 13.62,10.52 0,0 -13.06,2.17 -14.68,-2.07 -1.62,-4.24 0.9,-5.9 0.9,-5.9 z"
         style="fill:#655eab"
         id="path64" />
      <path
         d="m 92.84,327.09 c 0,0 -2.12,-1.71 0.16,-2.55 2.28,-0.84 13.5,-0.59 13.62,10.52 0,0 -13.06,2.17 -14.68,-2.07 -1.62,-4.24 0.9,-5.9 0.9,-5.9 z"
         style="opacity:0.2;isolation:isolate;fill:#ffffff"
         id="path65" />
      <path
         d="m 85.93,336 c 0,0 -0.19,-2.08 1.49,-1.27 1.68,0.81 7.53,7.13 1.47,13.11 0,0 -8.16,-6 -6.69,-9.19 1.47,-3.19 3.73,-2.65 3.73,-2.65 z"
         style="fill:#655eab"
         id="path66" />
      <path
         d="m 85.93,336 c 0,0 -0.19,-2.08 1.49,-1.27 1.68,0.81 7.53,7.13 1.47,13.11 0,0 -8.16,-6 -6.69,-9.19 1.47,-3.19 3.73,-2.65 3.73,-2.65 z"
         style="opacity:0.2;isolation:isolate;fill:#ffffff"
         id="path67" />
      <path
         d="m 64.31,339 c 0,0 1.26,-1.66 -0.59,-1.87 -1.85,-0.21 -10.17,2 -8.23,10.31 0,0 10.12,-0.76 10.56,-4.2 C 66.49,339.8 64.31,339 64.31,339 Z"
         style="fill:#655eab"
         id="path68" />
      <path
         d="m 64.31,339 c 0,0 1.26,-1.66 -0.59,-1.87 -1.85,-0.21 -10.17,2 -8.23,10.31 0,0 10.12,-0.76 10.56,-4.2 C 66.49,339.8 64.31,339 64.31,339 Z"
         style="opacity:0.2;isolation:isolate;fill:#ffffff"
         id="path69" />
      <polygon
         points="60.02,378.55 102.25,378.55 98.51,416.58 63.77,416.58 "
         style="fill:#655eab"
         id="polygon69" />
      <polygon
         points="60.02,378.55 102.25,378.55 98.51,416.58 63.77,416.58 "
         style="opacity:0.5;isolation:isolate;fill:#ffffff"
         id="polygon70" />
      <rect
         x="58.169998"
         y="374.35001"
         width="45.939999"
         height="8.3900003"
         style="fill:#655eab"
         id="rect70" />
      <rect
         x="58.169998"
         y="374.35001"
         width="45.939999"
         height="8.3900003"
         style="opacity:0.2;isolation:isolate;fill:#ffffff"
         id="rect71" />
    </g>
  </g>
</svg>
