<?xml version="1.0" encoding="UTF-8" standalone="no"?>
<svg
   viewBox="0 0 500 500"
   version="1.1"
   id="svg81"
   xmlns="http://www.w3.org/2000/svg"
   xmlns:svg="http://www.w3.org/2000/svg">
  <defs
     id="defs81" />
  <g
     id="freepik--voice-chat--inject-2"
     transform="matrix(3.2814854,0,0,3.2814854,-567.00783,-243.91281)">
    <path
       d="m 206.1,120.76 v 17.53 a 4.6,4.6 0 0 0 4.6,4.61 h 96.8 l 4,8.76 4.19,-8.76 h 4.87 a 4.6,4.6 0 0 0 4.6,-4.61 v -17.53 a 4.59,4.59 0 0 0 -4.6,-4.6 H 210.7 a 4.59,4.59 0 0 0 -4.6,4.6 z"
       style="fill:#655eab"
       id="path1" />
    <path
       d="m 206.1,120.76 v 17.53 a 4.6,4.6 0 0 0 4.6,4.61 h 96.8 l 4,8.76 4.19,-8.76 h 4.87 a 4.6,4.6 0 0 0 4.6,-4.61 v -17.53 a 4.59,4.59 0 0 0 -4.6,-4.6 H 210.7 a 4.59,4.59 0 0 0 -4.6,4.6 z"
       style="opacity:0.5;fill:#ffffff"
       id="path2" />
    <path
       d="m 227.41,129.08 a 7.4,7.4 0 1 1 -7.4,-7.39 7.4,7.4 0 0 1 7.4,7.39 z"
       style="fill:#655eab"
       id="path3" />
    <polygon
       points="217.98,132.57 224.16,128.65 217.98,125.59 "
       style="fill:#ffffff"
       id="polygon3" />
    <rect
       x="231.97"
       y="124.37"
       width="1.14"
       height="10.17"
       style="fill:#655eab"
       id="rect3" />
    <rect
       x="236.28"
       y="126.22"
       width="1.14"
       height="6.4699998"
       style="fill:#655eab"
       id="rect4" />
    <rect
       x="240.59"
       y="124.37"
       width="1.14"
       height="10.17"
       style="fill:#655eab"
       id="rect5" />
    <rect
       x="244.89"
       y="126.22"
       width="1.14"
       height="6.4699998"
       style="fill:#655eab"
       id="rect6" />
    <rect
       x="253.50999"
       y="126.22"
       width="1.14"
       height="6.4699998"
       style="fill:#655eab"
       id="rect7" />
    <rect
       x="262.12"
       y="126.22"
       width="1.14"
       height="6.4699998"
       style="fill:#655eab"
       id="rect8" />
    <rect
       x="270.73999"
       y="126.22"
       width="1.14"
       height="6.4699998"
       style="fill:#655eab"
       id="rect9" />
    <rect
       x="279.35001"
       y="126.22"
       width="1.14"
       height="6.4699998"
       style="fill:#655eab"
       id="rect10" />
    <rect
       x="287.95999"
       y="126.22"
       width="1.14"
       height="6.4699998"
       style="fill:#655eab"
       id="rect11" />
    <rect
       x="296.57999"
       y="126.22"
       width="1.14"
       height="6.4699998"
       style="fill:#655eab"
       id="rect12" />
    <rect
       x="313.84"
       y="126.22"
       width="1.14"
       height="6.4699998"
       style="fill:#655eab"
       id="rect13" />
    <rect
       x="305.42001"
       y="126.22"
       width="1.14"
       height="6.4699998"
       style="fill:#655eab"
       id="rect14" />
    <rect
       x="249.2"
       y="124.37"
       width="1.14"
       height="10.17"
       style="fill:#655eab"
       id="rect15" />
    <rect
       x="257.82001"
       y="124.37"
       width="1.14"
       height="10.17"
       style="fill:#655eab"
       id="rect16" />
    <rect
       x="266.42999"
       y="124.37"
       width="1.14"
       height="10.17"
       style="fill:#655eab"
       id="rect17" />
    <rect
       x="275.04001"
       y="124.37"
       width="1.14"
       height="10.17"
       style="fill:#655eab"
       id="rect18" />
    <rect
       x="283.66"
       y="124.37"
       width="1.14"
       height="10.17"
       style="fill:#655eab"
       id="rect19" />
    <rect
       x="292.26999"
       y="124.37"
       width="1.14"
       height="10.17"
       style="fill:#655eab"
       id="rect20" />
    <rect
       x="300.89001"
       y="124.37"
       width="1.14"
       height="10.17"
       style="fill:#655eab"
       id="rect21" />
    <rect
       x="309.5"
       y="124.37"
       width="1.14"
       height="10.17"
       style="fill:#655eab"
       id="rect22" />
    <rect
       x="262.12"
       y="126.22"
       width="1.14"
       height="6.4699998"
       style="opacity:0.8;fill:#ffffff"
       id="rect23" />
    <rect
       x="270.73999"
       y="126.22"
       width="1.14"
       height="6.4699998"
       style="opacity:0.8;fill:#ffffff"
       id="rect24" />
    <rect
       x="279.35001"
       y="126.22"
       width="1.14"
       height="6.4699998"
       style="opacity:0.8;fill:#ffffff"
       id="rect25" />
    <rect
       x="287.95999"
       y="126.22"
       width="1.14"
       height="6.4699998"
       style="opacity:0.8;fill:#ffffff"
       id="rect26" />
    <rect
       x="296.57999"
       y="126.22"
       width="1.14"
       height="6.4699998"
       style="opacity:0.8;fill:#ffffff"
       id="rect27" />
    <rect
       x="313.84"
       y="126.22"
       width="1.14"
       height="6.4699998"
       style="opacity:0.8;fill:#ffffff"
       id="rect28" />
    <rect
       x="305.42001"
       y="126.22"
       width="1.14"
       height="6.4699998"
       style="opacity:0.8;fill:#ffffff"
       id="rect29" />
    <rect
       x="266.42999"
       y="124.37"
       width="1.14"
       height="10.17"
       style="opacity:0.8;fill:#ffffff"
       id="rect30" />
    <rect
       x="275.04001"
       y="124.37"
       width="1.14"
       height="10.17"
       style="opacity:0.8;fill:#ffffff"
       id="rect31" />
    <rect
       x="283.66"
       y="124.37"
       width="1.14"
       height="10.17"
       style="opacity:0.8;fill:#ffffff"
       id="rect32" />
    <rect
       x="292.26999"
       y="124.37"
       width="1.14"
       height="10.17"
       style="opacity:0.8;fill:#ffffff"
       id="rect33" />
    <rect
       x="300.89001"
       y="124.37"
       width="1.14"
       height="10.17"
       style="opacity:0.8;fill:#ffffff"
       id="rect34" />
    <rect
       x="309.5"
       y="124.37"
       width="1.14"
       height="10.17"
       style="opacity:0.8;fill:#ffffff"
       id="rect35" />
    <path
       d="m 291.85,78.93 v 17.54 a 4.59,4.59 0 0 1 -4.6,4.6 h -96.8 l -4,8.77 -4.19,-8.77 h -4.87 a 4.59,4.59 0 0 1 -4.6,-4.6 V 78.93 a 4.6,4.6 0 0 1 4.6,-4.6 h 109.9 a 4.6,4.6 0 0 1 4.56,4.6 z"
       style="fill:#655eab"
       id="path35" />
    <path
       d="m 291.85,78.93 v 17.54 a 4.59,4.59 0 0 1 -4.6,4.6 h -96.8 l -4,8.77 -4.19,-8.77 h -4.87 a 4.59,4.59 0 0 1 -4.6,-4.6 V 78.93 a 4.6,4.6 0 0 1 4.6,-4.6 h 109.9 a 4.6,4.6 0 0 1 4.56,4.6 z"
       style="opacity:0.5;fill:#ffffff"
       id="path36" />
    <rect
       x="183.83"
       y="80.849998"
       width="5.3600001"
       height="10.17"
       rx="2.5999999"
       style="fill:#655eab"
       id="rect36" />
    <path
       d="m 192.12,87.38 a 6.9,6.9 0 0 1 -1.72,4.5 5.07,5.07 0 0 1 -3.4,1.46 v 3 h -1 v -3 a 5.07,5.07 0 0 1 -3.39,-1.46 6.9,6.9 0 0 1 -1.72,-4.5 h 1 a 6,6 0 0 0 1.44,3.8 4.25,4.25 0 0 0 3.18,1.19 4.33,4.33 0 0 0 3.19,-1.19 6,6 0 0 0 1.43,-3.8 z"
       style="fill:#655eab"
       id="path37" />
    <rect
       x="200.48"
       y="82.690002"
       width="1.14"
       height="10.17"
       style="fill:#655eab"
       id="rect37" />
    <rect
       x="204.78"
       y="84.540001"
       width="1.14"
       height="6.4699998"
       style="fill:#655eab"
       id="rect38" />
    <rect
       x="209.09"
       y="82.690002"
       width="1.14"
       height="10.17"
       style="fill:#655eab"
       id="rect39" />
    <rect
       x="213.39999"
       y="84.540001"
       width="1.14"
       height="6.4699998"
       style="fill:#655eab"
       id="rect40" />
    <rect
       x="222.00999"
       y="84.540001"
       width="1.14"
       height="6.4699998"
       style="fill:#655eab"
       id="rect41" />
    <rect
       x="230.62"
       y="84.540001"
       width="1.14"
       height="6.4699998"
       style="fill:#655eab"
       id="rect42" />
    <rect
       x="239.24001"
       y="84.540001"
       width="1.14"
       height="6.4699998"
       style="fill:#655eab"
       id="rect43" />
    <rect
       x="247.85001"
       y="84.540001"
       width="1.14"
       height="6.4699998"
       style="fill:#655eab"
       id="rect44" />
    <rect
       x="256.47"
       y="84.540001"
       width="1.14"
       height="6.4699998"
       style="fill:#655eab"
       id="rect45" />
    <rect
       x="265.07999"
       y="84.540001"
       width="1.14"
       height="6.4699998"
       style="fill:#655eab"
       id="rect46" />
    <rect
       x="282.34"
       y="84.540001"
       width="1.14"
       height="6.4699998"
       style="fill:#655eab"
       id="rect47" />
    <rect
       x="273.92001"
       y="84.540001"
       width="1.14"
       height="6.4699998"
       style="fill:#655eab"
       id="rect48" />
    <rect
       x="217.7"
       y="82.690002"
       width="1.14"
       height="10.17"
       style="fill:#655eab"
       id="rect49" />
    <rect
       x="226.32001"
       y="82.690002"
       width="1.14"
       height="10.17"
       style="fill:#655eab"
       id="rect50" />
    <rect
       x="234.92999"
       y="82.690002"
       width="1.14"
       height="10.17"
       style="fill:#655eab"
       id="rect51" />
    <rect
       x="243.55"
       y="82.690002"
       width="1.14"
       height="10.17"
       style="fill:#655eab"
       id="rect52" />
    <rect
       x="252.16"
       y="82.690002"
       width="1.14"
       height="10.17"
       style="fill:#655eab"
       id="rect53" />
    <rect
       x="260.76999"
       y="82.690002"
       width="1.14"
       height="10.17"
       style="fill:#655eab"
       id="rect54" />
    <rect
       x="269.39001"
       y="82.690002"
       width="1.14"
       height="10.17"
       style="fill:#655eab"
       id="rect55" />
    <rect
       x="278"
       y="82.690002"
       width="1.14"
       height="10.17"
       style="fill:#655eab"
       id="rect56" />
    <rect
       x="230.62"
       y="84.540001"
       width="1.14"
       height="6.4699998"
       style="opacity:0.8;fill:#ffffff"
       id="rect57" />
    <rect
       x="239.24001"
       y="84.540001"
       width="1.14"
       height="6.4699998"
       style="opacity:0.8;fill:#ffffff"
       id="rect58" />
    <rect
       x="247.85001"
       y="84.540001"
       width="1.14"
       height="6.4699998"
       style="opacity:0.8;fill:#ffffff"
       id="rect59" />
    <rect
       x="256.47"
       y="84.540001"
       width="1.14"
       height="6.4699998"
       style="opacity:0.8;fill:#ffffff"
       id="rect60" />
    <rect
       x="265.07999"
       y="84.540001"
       width="1.14"
       height="6.4699998"
       style="opacity:0.8;fill:#ffffff"
       id="rect61" />
    <rect
       x="282.34"
       y="84.540001"
       width="1.14"
       height="6.4699998"
       style="opacity:0.8;fill:#ffffff"
       id="rect62" />
    <rect
       x="273.92001"
       y="84.540001"
       width="1.14"
       height="6.4699998"
       style="opacity:0.8;fill:#ffffff"
       id="rect63" />
    <rect
       x="234.92999"
       y="82.690002"
       width="1.14"
       height="10.17"
       style="opacity:0.8;fill:#ffffff"
       id="rect64" />
    <rect
       x="243.55"
       y="82.690002"
       width="1.14"
       height="10.17"
       style="opacity:0.8;fill:#ffffff"
       id="rect65" />
    <rect
       x="252.16"
       y="82.690002"
       width="1.14"
       height="10.17"
       style="opacity:0.8;fill:#ffffff"
       id="rect66" />
    <rect
       x="260.76999"
       y="82.690002"
       width="1.14"
       height="10.17"
       style="opacity:0.8;fill:#ffffff"
       id="rect67" />
    <rect
       x="269.39001"
       y="82.690002"
       width="1.14"
       height="10.17"
       style="opacity:0.8;fill:#ffffff"
       id="rect68" />
    <rect
       x="278"
       y="82.690002"
       width="1.14"
       height="10.17"
       style="opacity:0.8;fill:#ffffff"
       id="rect69" />
  </g>
  <g
     id="freepik--Plant--inject-2"
     transform="matrix(1.8162005,0,0,1.8162005,-193.36179,-328.18743)">
    <path
       d="m 251.79,396.8 c 0,0 -7.79,-12.24 -26.7,-23.36 -13.35,-7.86 -21.14,-30 -21.14,-30 0,0 25.59,1.11 36.72,16.69 11.13,15.58 11.12,36.67 11.12,36.67 z"
       style="fill:#655eab"
       id="path69" />
    <g
       style="opacity:0.2"
       id="g70">
      <path
         d="m 251.79,396.8 c 0,0 -7.79,-12.24 -26.7,-23.36 -13.35,-7.86 -21.14,-30 -21.14,-30 0,0 25.59,1.11 36.72,16.69 11.13,15.58 11.12,36.67 11.12,36.67 z"
         id="path70" />
    </g>
    <path
       d="m 251.88,397.13 a 0.38,0.38 0 0 1 -0.37,-0.28 65,65 0 0 0 -17.45,-29.3 63.72,63.72 0 0 0 -12.21,-9.55 0.38,0.38 0 0 1 -0.14,-0.52 0.37,0.37 0 0 1 0.51,-0.15 64.58,64.58 0 0 1 12.38,9.67 65.71,65.71 0 0 1 17.64,29.64 0.38,0.38 0 0 1 -0.27,0.47 z"
       style="opacity:0.2"
       id="path71" />
    <path
       d="m 248.44,396.52 c 0,0 -2.23,-4.45 -12.24,-3.33 -10.01,1.12 -15.58,6.67 -33.38,-3.34 0,0 13.35,-11.13 27.82,-8.9 14.47,2.23 15.57,7.79 17.8,15.57 z"
       style="fill:#655eab"
       id="path72" />
    <g
       style="opacity:0.2"
       id="g73">
      <path
         d="m 248.44,396.52 c 0,0 -2.23,-4.45 -12.24,-3.33 -10.01,1.12 -15.58,6.67 -33.38,-3.34 0,0 13.35,-11.13 27.82,-8.9 14.47,2.23 15.57,7.79 17.8,15.57 z"
         id="path73" />
    </g>
    <path
       d="m 248.49,396.9 a 0.38,0.38 0 0 1 -0.33,-0.18 c 0,-0.07 -4.52,-7.1 -11.72,-8.41 -12.59,-2.29 -21.16,1.73 -21.24,1.77 a 0.37,0.37 0 0 1 -0.51,-0.17 0.38,0.38 0 0 1 0.18,-0.51 c 0.08,0 8.86,-4.18 21.7,-1.84 7.54,1.37 12.05,8.46 12.24,8.76 a 0.39,0.39 0 0 1 -0.12,0.53 0.53,0.53 0 0 1 -0.2,0.05 z"
       style="opacity:0.2"
       id="path74" />
    <path
       d="m 252.81,395.45 c 0,0 -0.87,-4.9 7.82,-10 8.69,-5.1 16.48,-3.95 24.78,-22.61 0,0 -17.35,-1 -27.63,9.47 -10.28,10.47 -7.84,15.56 -4.97,23.14 z"
       style="fill:#655eab"
       id="path75" />
    <g
       style="opacity:0.2"
       id="g76">
      <path
         d="m 252.81,395.45 c 0,0 -0.87,-4.9 7.82,-10 8.69,-5.1 16.48,-3.95 24.78,-22.61 0,0 -17.35,-1 -27.63,9.47 -10.28,10.47 -7.84,15.56 -4.97,23.14 z"
         id="path76" />
    </g>
    <path
       d="m 252.77,395.86 a 0.38,0.38 0 0 1 -0.38,-0.35 c 0,-0.36 -0.65,-8.74 4.58,-14.34 8.91,-9.54 18.42,-11.47 18.51,-11.49 a 0.39,0.39 0 0 1 0.45,0.31 0.38,0.38 0 0 1 -0.3,0.44 c -0.1,0 -9.37,1.91 -18.1,11.26 -5,5.36 -4.39,13.67 -4.38,13.76 a 0.38,0.38 0 0 1 -0.35,0.41 z"
       style="opacity:0.2"
       id="path77" />
    <path
       d="m 251,456 c -19.89,0 -32.55,-3.16 -30.51,-17.18 1.29,-8.89 8.22,-17.6 13.12,-22.78 0.69,-0.73 1.33,-1.39 1.92,-2 1.82,-1.79 3,-2.82 3,-2.82 l 0.05,-0.33 0.35,-2 0.4,-2.26 0.92,-5.17 0.31,-1.81 10.4,-0.46 10.85,0.46 0.25,1.81 0.39,2.83 0.63,4.6 0.27,2 v 0.33 c 0,0 1.23,1 3,2.82 0.59,0.58 1.24,1.24 1.93,2 4.89,5.18 11.83,13.89 13.12,22.78 C 283.52,452.81 270.86,456 251,456 Z"
       style="fill:#655eab"
       id="path78" />
    <polygon
       points="265.67,401.5 236.05,401.5 236.05,395.17 265.67,395.17 "
       style="fill:#655eab"
       id="polygon78" />
    <g
       style="opacity:0.4"
       id="g79">
      <polygon
         points="265.67,401.5 236.05,401.5 236.05,395.17 265.67,395.17 "
         style="fill:#ffffff"
         id="polygon79" />
    </g>
    <g
       style="opacity:0.3"
       id="g80">
      <polygon
         points="263.09,408.93 263.36,410.89 238.59,410.89 238.94,408.93 "
         id="polygon80" />
    </g>
    <g
       style="opacity:0.3"
       id="g81">
      <path
         d="m 268.37,416 h -34.79 c 0.69,-0.73 1.33,-1.39 1.92,-2 h 30.94 c 0.56,0.62 1.24,1.28 1.93,2 z"
         id="path80" />
    </g>
  </g>
</svg>
