<?xml version="1.0" encoding="UTF-8" standalone="no"?>
<svg
   viewBox="0 0 500 500"
   version="1.1"
   id="svg25"
   xmlns="http://www.w3.org/2000/svg"
   xmlns:svg="http://www.w3.org/2000/svg">
  <defs
     id="defs25" />
  <g
     id="freepik--Camera--inject-2"
     transform="matrix(1.5492347,0,0,1.5492347,-217.81467,-144.85345)">
    <path
       d="m 282.17,173.42 h 3.37 a 1.31,1.31 0 0 0 1.24,-1.9 l -2.09,-6 a 3,3 0 0 0 -2.55,-1.9 h -3.38 a 1.31,1.31 0 0 0 -1.24,1.9 l 2.09,6 a 3,3 0 0 0 2.56,1.9 z"
       id="path1" />
    <path
       d="m 283.71,173.42 h 3.37 a 1.31,1.31 0 0 0 1.24,-1.9 l -2.09,-6 a 3,3 0 0 0 -2.55,-1.9 h -3.38 a 1.31,1.31 0 0 0 -1.24,1.9 l 2.1,6 a 3,3 0 0 0 2.55,1.9 z"
       style="fill:#263238"
       id="path2" />
    <path
       d="m 291.46,173.42 h -3.38 a 1.31,1.31 0 0 1 -1.24,-1.9 l 2.1,-6 a 3,3 0 0 1 2.55,-1.9 h 3.37 a 1.31,1.31 0 0 1 1.24,1.9 l -2.09,6 a 3,3 0 0 1 -2.55,1.9 z"
       id="path3" />
    <path
       d="m 293,173.42 h -3.37 a 1.31,1.31 0 0 1 -1.24,-1.9 l 2.09,-6 a 3,3 0 0 1 2.55,-1.9 h 3.38 a 1.31,1.31 0 0 1 1.24,1.9 l -2.1,6 a 3,3 0 0 1 -2.55,1.9 z"
       style="fill:#263238"
       id="path4" />
    <path
       d="m 294.52,167.56 h -4.24 l -14.55,-1.65 a 4.09,4.09 0 0 1 -3.62,-4 v -9.54 a 3.21,3.21 0 0 1 3.21,-3.21 h 19.2 a 1.38,1.38 0 0 1 1.38,1.38 v 15.69 a 1.38,1.38 0 0 1 -1.38,1.33 z"
       id="path5" />
    <rect
       x="290.28"
       y="149.11"
       width="11.16"
       height="18.450001"
       rx="1.38"
       style="fill:#263238"
       id="rect5" />
    <polygon
       points="301.44,150.5 301.44,157.92 284,159.92 284,150.5 "
       id="polygon5" />
    <path
       d="m 303.9,156.22 h -9.38 l -32.16,-3.65 a 9,9 0 0 1 -8,-8.95 v -21.08 a 7.09,7.09 0 0 1 7.09,-7.1 h 42.45 a 3,3 0 0 1 3,3 v 34.69 a 3,3 0 0 1 -3,3.09 z"
       id="path6" />
    <polygon
       points="240.8,93.5 240.8,115.44 231.8,115.44 225.6,93.5 "
       id="polygon6" />
    <rect
       x="260.25"
       y="104.47"
       width="9.1000004"
       height="2.25"
       id="rect6" />
    <rect
       x="237.8"
       y="93.5"
       width="27"
       height="21.940001"
       transform="rotate(180,251.295,104.47)"
       style="fill:#263238"
       id="rect7" />
    <polygon
       points="242.3,104.47 256.13,128.78 251.63,128.78 237.8,104.47 "
       id="polygon7" />
    <polygon
       points="269.3,104.47 283.13,128.78 278.63,128.78 264.8,104.47 "
       id="polygon8" />
    <rect
       x="233.2"
       y="104.47"
       width="9.1000004"
       height="2.25"
       id="rect8" />
    <rect
       x="294.51999"
       y="115.44"
       width="24.66"
       height="40.779999"
       rx="3.04"
       style="fill:#263238"
       id="rect9" />
    <path
       d="m 308,127.67 h 47.75 V 144 H 308 a 7.22,7.22 0 0 1 -7.22,-7.22 v -1.89 a 7.22,7.22 0 0 1 7.22,-7.22 z"
       id="path9" />
    <path
       d="m 339.83,135.83 a 14,14 0 0 1 -14,14 c -7.73,0 -10.92,-6.26 -10.92,-14 0,-7.74 3.19,-14 10.92,-14 a 14,14 0 0 1 14,14 z"
       style="fill:#263238"
       id="path10" />
    <path
       d="m 332.26,153.06 -7.15,-4.79 a 5.72,5.72 0 0 1 -2.53,-4.75 v -15.38 a 5.72,5.72 0 0 1 2.53,-4.75 l 7.15,-4.78 a 1.6,1.6 0 0 1 0.9,-0.28 h 32.65 a 1.64,1.64 0 0 1 1.15,0.48 l 5.81,5.8 a 1.66,1.66 0 0 1 0.47,1.16 v 20.13 a 1.64,1.64 0 0 1 -0.47,1.15 l -5.81,5.8 a 1.6,1.6 0 0 1 -1.15,0.48 h -32.65 a 1.59,1.59 0 0 1 -0.9,-0.27 z"
       id="path11" />
    <path
       d="m 337.27,152.85 -5.8,-5.8 a 1.64,1.64 0 0 1 -0.48,-1.15 v -20.13 a 1.67,1.67 0 0 1 0.48,-1.16 l 5.8,-5.8 a 1.67,1.67 0 0 1 1.16,-0.48 h 32.46 a 1.67,1.67 0 0 1 1.16,0.48 l 5.8,5.8 a 1.63,1.63 0 0 1 0.48,1.16 v 20.13 a 1.6,1.6 0 0 1 -0.48,1.15 l -5.8,5.8 a 1.63,1.63 0 0 1 -1.16,0.48 h -32.46 a 1.63,1.63 0 0 1 -1.16,-0.48 z"
       style="fill:#263238"
       id="path12" />
    <path
       d="M 370.33,150.33 H 339 l -5,-5 v -19 c 2,-2 3.05,-3 5,-5 h 31.34 c 1.95,2 3,3 5,5 v 19 z"
       style="opacity:0.5;fill:#655eab"
       id="path13" />
    <circle
       cx="354.66"
       cy="135.83"
       r="12.25"
       style="fill:#263238"
       id="circle13" />
    <path
       d="m 350.8,126.81 a 8.9,8.9 0 0 0 -2.84,0.46 10.64,10.64 0 0 0 0,17.12 8.9,8.9 0 0 0 2.84,0.46 9,9 0 1 0 0,-18 z"
       style="opacity:0.7;fill:#655eab"
       id="path14" />
    <path
       d="m 357.48,132.93 a 3.61,3.61 0 1 1 -3.61,-3.61 3.61,3.61 0 0 1 3.61,3.61 z"
       style="fill:#655eab"
       id="path15" />
    <path
       d="m 286.28,142.82 -33.55,-10.06 a 3,3 0 0 1 -2.18,-2.92 v -6.56 a 3.06,3.06 0 0 1 3.06,-3.06 h 33.55 a 3.06,3.06 0 0 1 3.06,3.06 v 16.61 a 3.06,3.06 0 0 1 -3.94,2.93 z"
       style="fill:#655eab"
       id="path16" />
    <path
       d="m 284.5,142.82 -33.56,-10.06 a 3,3 0 0 1 -2.17,-2.92 v -6.56 a 3.05,3.05 0 0 1 3,-3.06 h 33.56 a 3.06,3.06 0 0 1 3.05,3.06 v 16.61 a 3.05,3.05 0 0 1 -3.88,2.93 z"
       style="fill:#263238"
       id="path17" />
    <path
       d="m 250.55,137.66 v 2.43 a 1.8,1.8 0 0 0 1.29,1.74 l 36,10.8 a 1.82,1.82 0 0 0 2.34,-1.73 v -2.44 a 1.82,1.82 0 0 0 -1.3,-1.74 l -36,-10.8 a 1.81,1.81 0 0 0 -2.33,1.74 z"
       style="fill:#655eab"
       id="path18" />
    <path
       d="m 296.85,169.39 h -20.23 v 19.78 h 20.23 c 3.68,0 6.57,-4.35 6.57,-9.89 0,-5.54 -2.89,-9.89 -6.57,-9.89 z"
       style="fill:#263238"
       id="path19" />
    <path
       d="m 276.62,189.17 c -3.68,0 -6.57,-4.35 -6.57,-9.89 0,-5.54 2.89,-9.89 6.57,-9.89 3.68,0 6.56,4.34 6.56,9.89 0,5.55 -2.89,9.89 -6.56,9.89 z"
       style="fill:#655eab"
       id="path20" />
    <ellipse
       cx="276.62"
       cy="179.28"
       rx="4.5599999"
       ry="7.8899999"
       style="fill:#263238"
       id="ellipse20" />
    <path
       d="m 287.19,191.76 c -5.65,0 -10.44,2.68 -12.09,6.39 A 2,2 0 0 0 277,201 h 20.39 a 2,2 0 0 0 1.89,-2.85 c -1.66,-3.71 -6.45,-6.39 -12.09,-6.39 z"
       style="fill:#263238"
       id="path21" />
    <rect
       x="276.62"
       y="189.17"
       width="21.139999"
       height="6.3299999"
       rx="2.27"
       id="rect21" />
    <polygon
       points="280.19,201 251.84,416.24 248.64,416.24 276.99,201 "
       style="fill:#263238"
       id="polygon21" />
    <polygon
       points="286.82,201 272.65,416.24 269.45,416.24 283.62,201 "
       style="fill:#263238"
       id="polygon22" />
    <polygon
       points="294.19,201 322.53,416.24 325.73,416.24 297.38,201 "
       style="fill:#263238"
       id="polygon23" />
    <polygon
       points="287.85,201 302.02,416.24 304.92,416.24 290.75,201 "
       style="fill:#263238"
       id="polygon24" />
    <polygon
       points="273.29,155.22 273.29,157.22 266.89,157.22 245.73,197.35 243.96,196.42 265.69,155.22 "
       id="polygon25" />
    <rect
       x="239.37"
       y="188.95"
       width="17.200001"
       height="4"
       transform="rotate(-62.18,247.95671,190.9464)"
       style="fill:#655eab"
       id="rect25" />
  </g>
</svg>
