<?xml version="1.0" encoding="UTF-8" standalone="no"?>
<svg
   viewBox="0 0 500 500"
   version="1.1"
   id="svg62"
   xmlns="http://www.w3.org/2000/svg"
   xmlns:svg="http://www.w3.org/2000/svg">
  <defs
     id="defs62" />
  <g
     id="g62"
     transform="matrix(1.4614638,0,0,1.4614638,-143.41345,-138.74737)">
    <g
       id="freepik--Typewriter--inject-2">
      <path
         d="M 346.81,314.61 H 156 v -39 a 4.34,4.34 0 0 1 4.34,-4.35 h 182.12 a 4.35,4.35 0 0 1 4.35,4.35 z"
         style="fill:#655eab"
         id="path1" />
      <g
         style="opacity:0.2"
         id="g2">
        <path
           d="m 160.37,271.29 h 182.1 a 4.33,4.33 0 0 1 4.33,4.33 v 39 H 156 v -39 a 4.33,4.33 0 0 1 4.37,-4.33 z"
           id="path2" />
      </g>
      <rect
         x="160.34"
         y="202.63"
         width="182.17"
         height="111.97"
         style="fill:#263238"
         id="rect2" />
      <g
         style="opacity:0.9"
         id="g3">
        <rect
           x="160.34"
           y="202.63"
           width="182.17"
           height="111.97"
           style="fill:#ffffff"
           id="rect3" />
      </g>
      <g
         style="opacity:0.2"
         id="g4">
        <path
           d="M 321.54,237.08 H 179.89 a 0.5,0.5 0 0 1 0,-1 h 141.65 a 0.5,0.5 0 1 1 0,1 z"
           id="path3" />
      </g>
      <g
         style="opacity:0.2"
         id="g5">
        <path
           d="M 321.54,244.66 H 179.89 a 0.5,0.5 0 0 1 0,-1 h 141.65 a 0.5,0.5 0 1 1 0,1 z"
           id="path4" />
      </g>
      <g
         style="opacity:0.2"
         id="g6">
        <path
           d="M 321.54,252.24 H 179.89 a 0.5,0.5 0 0 1 -0.5,-0.5 0.51,0.51 0 0 1 0.5,-0.5 h 141.65 a 0.51,0.51 0 0 1 0.51,0.5 0.5,0.5 0 0 1 -0.51,0.5 z"
           id="path5" />
      </g>
      <g
         style="opacity:0.2"
         id="g7">
        <path
           d="M 321.54,259.83 H 179.89 a 0.51,0.51 0 0 1 0,-1 h 141.65 a 0.51,0.51 0 1 1 0,1 z"
           id="path6" />
      </g>
      <g
         style="opacity:0.2"
         id="g8">
        <path
           d="M 321.54,267.41 H 179.89 a 0.51,0.51 0 0 1 -0.5,-0.5 0.5,0.5 0 0 1 0.5,-0.5 h 141.65 a 0.5,0.5 0 0 1 0.51,0.5 0.51,0.51 0 0 1 -0.51,0.5 z"
           id="path7" />
      </g>
      <g
         style="opacity:0.2"
         id="g9">
        <path
           d="m 225.8,275 h -45.91 a 0.5,0.5 0 0 1 0,-1 h 45.91 a 0.5,0.5 0 0 1 0,1 z"
           id="path8" />
      </g>
      <g
         style="opacity:0.2"
         id="g10">
        <path
           d="M 321.54,297.74 H 179.89 a 0.51,0.51 0 0 1 0,-1 h 141.65 a 0.51,0.51 0 1 1 0,1 z"
           id="path9" />
      </g>
      <g
         style="opacity:0.2"
         id="g11">
        <path
           d="M 287.47,224.6 H 214 a 0.5,0.5 0 0 1 0,-1 h 73.5 a 0.5,0.5 0 0 1 0,1 z"
           id="path10" />
      </g>
      <path
         d="m 380.85,437.06 h -259 a 5.32,5.32 0 0 1 -5.26,-6.15 l 0.53,-3.4 0.11,-0.66 16,-101.15 c 0.06,-0.37 0.13,-0.74 0.22,-1.1 l 0.18,-0.65 a 13.13,13.13 0 0 1 12.59,-9.34 h 210.3 a 13.15,13.15 0 0 1 12.55,9.39 l 0.18,0.65 c 0.08,0.36 0.15,0.73 0.21,1.1 l 16,101.15 0.11,0.66 0.54,3.4 a 5.33,5.33 0 0 1 -5.26,6.1 z"
         style="fill:#655eab"
         id="path11" />
      <polygon
         points="385.46,426.85 385.57,427.51 117.08,427.51 117.19,426.85 "
         style="fill:#263238"
         id="polygon11" />
      <g
         style="opacity:0.3"
         id="g12">
        <path
           d="m 144.79,360.18 -8.62,52 a 2.91,2.91 0 0 0 2.87,3.38 h 224.58 a 2.9,2.9 0 0 0 2.86,-3.38 l -8.62,-52 A 2.9,2.9 0 0 0 355,357.75 H 147.66 a 2.91,2.91 0 0 0 -2.87,2.43 z"
           id="path12" />
      </g>
      <path
         d="m 161.79,368.21 a 4.71,4.71 0 1 1 -4.71,-4.71 4.71,4.71 0 0 1 4.71,4.71 z"
         style="fill:#ffffff"
         id="path13" />
      <path
         d="m 176.39,368.21 a 4.72,4.72 0 1 1 -4.72,-4.71 4.71,4.71 0 0 1 4.72,4.71 z"
         style="fill:#ffffff"
         id="path14" />
      <path
         d="m 191,368.21 a 4.71,4.71 0 1 1 -4.71,-4.71 4.71,4.71 0 0 1 4.71,4.71 z"
         style="fill:#ffffff"
         id="path15" />
      <path
         d="m 205.57,368.21 a 4.71,4.71 0 1 1 -4.71,-4.71 4.71,4.71 0 0 1 4.71,4.71 z"
         style="fill:#ffffff"
         id="path16" />
      <path
         d="m 220.17,368.21 a 4.72,4.72 0 1 1 -4.71,-4.71 4.71,4.71 0 0 1 4.71,4.71 z"
         style="fill:#ffffff"
         id="path17" />
      <path
         d="m 234.76,368.21 a 4.71,4.71 0 1 1 -4.71,-4.71 4.71,4.71 0 0 1 4.71,4.71 z"
         style="fill:#ffffff"
         id="path18" />
      <path
         d="m 249.36,368.21 a 4.72,4.72 0 1 1 -4.71,-4.71 4.71,4.71 0 0 1 4.71,4.71 z"
         style="fill:#ffffff"
         id="path19" />
      <path
         d="m 264,368.21 a 4.71,4.71 0 1 1 -4.71,-4.71 4.71,4.71 0 0 1 4.71,4.71 z"
         style="fill:#ffffff"
         id="path20" />
      <path
         d="m 278.55,368.21 a 4.72,4.72 0 1 1 -4.72,-4.71 4.71,4.71 0 0 1 4.72,4.71 z"
         style="fill:#ffffff"
         id="path21" />
      <path
         d="m 293.14,368.21 a 4.71,4.71 0 1 1 -4.71,-4.71 4.71,4.71 0 0 1 4.71,4.71 z"
         style="fill:#ffffff"
         id="path22" />
      <path
         d="m 307.74,368.21 a 4.72,4.72 0 1 1 -4.74,-4.71 4.71,4.71 0 0 1 4.74,4.71 z"
         style="fill:#ffffff"
         id="path23" />
      <path
         d="m 322.33,368.21 a 4.72,4.72 0 1 1 -4.71,-4.71 4.71,4.71 0 0 1 4.71,4.71 z"
         style="fill:#ffffff"
         id="path24" />
      <path
         d="m 336.92,368.21 a 4.71,4.71 0 1 1 -4.71,-4.71 4.71,4.71 0 0 1 4.71,4.71 z"
         style="fill:#ffffff"
         id="path25" />
      <path
         d="m 351.52,368.21 a 4.72,4.72 0 1 1 -4.71,-4.71 4.71,4.71 0 0 1 4.71,4.71 z"
         style="fill:#ffffff"
         id="path26" />
      <circle
         cx="157.08"
         cy="384.04001"
         r="4.71"
         style="fill:#ffffff"
         id="circle26" />
      <circle
         cx="171.67"
         cy="384.04001"
         r="4.71"
         style="fill:#ffffff"
         id="circle27" />
      <path
         d="M 191,384 A 4.71,4.71 0 1 1 186.29,379.28 4.71,4.71 0 0 1 191,384 Z"
         style="fill:#ffffff"
         id="path27" />
      <path
         d="m 205.57,384 a 4.71,4.71 0 1 1 -4.71,-4.72 4.71,4.71 0 0 1 4.71,4.72 z"
         style="fill:#ffffff"
         id="path28" />
      <circle
         cx="215.46001"
         cy="384.04001"
         r="4.71"
         style="fill:#ffffff"
         id="circle28" />
      <circle
         cx="230.05"
         cy="384.04001"
         r="4.71"
         style="fill:#ffffff"
         id="circle29" />
      <path
         d="m 249.36,384 a 4.72,4.72 0 1 1 -4.71,-4.72 4.71,4.71 0 0 1 4.71,4.72 z"
         style="fill:#ffffff"
         id="path29" />
      <path
         d="M 264,384 A 4.71,4.71 0 1 1 259.29,379.28 4.71,4.71 0 0 1 264,384 Z"
         style="fill:#ffffff"
         id="path30" />
      <circle
         cx="273.82999"
         cy="384.04001"
         r="4.71"
         style="fill:#ffffff"
         id="circle30" />
      <circle
         cx="288.42999"
         cy="384.04001"
         r="4.71"
         style="fill:#ffffff"
         id="circle31" />
      <path
         d="m 307.74,384 a 4.72,4.72 0 1 1 -4.72,-4.72 4.71,4.71 0 0 1 4.72,4.72 z"
         style="fill:#ffffff"
         id="path31" />
      <path
         d="m 322.33,384 a 4.72,4.72 0 1 1 -4.71,-4.72 4.71,4.71 0 0 1 4.71,4.72 z"
         style="fill:#ffffff"
         id="path32" />
      <circle
         cx="332.20999"
         cy="384.04001"
         r="4.71"
         style="fill:#ffffff"
         id="circle32" />
      <circle
         cx="346.81"
         cy="384.04001"
         r="4.71"
         style="fill:#ffffff"
         id="circle33" />
      <path
         d="m 191,399.86 a 4.71,4.71 0 1 1 -4.71,-4.71 4.71,4.71 0 0 1 4.71,4.71 z"
         style="fill:#ffffff"
         id="path33" />
      <path
         d="m 322.33,399.86 a 4.72,4.72 0 1 1 -4.71,-4.71 4.71,4.71 0 0 1 4.71,4.71 z"
         style="fill:#ffffff"
         id="path34" />
      <rect
         x="200.86"
         y="396.42999"
         width="105.86"
         height="8.1400003"
         rx="4.0599999"
         style="fill:#ffffff"
         id="rect34" />
      <path
         d="M 369.25,324.6 H 133.41 l 0.18,-0.65 h 235.48 z"
         style="fill:#263238"
         id="path35" />
      <polygon
         points="230.25,307.99 147.35,307.99 146.44,314.61 230.25,314.61 "
         style="fill:#263238"
         id="polygon35" />
      <polygon
         points="355.31,307.99 272.4,307.99 272.4,314.61 356.22,314.61 "
         style="fill:#263238"
         id="polygon36" />
      <path
         d="m 335.64,308 h -1 v -18.39 a 2.28,2.28 0 0 0 -2.27,-2.28 H 170.29 a 2.28,2.28 0 0 0 -2.27,2.28 V 308 h -1 v -18.39 a 3.28,3.28 0 0 1 3.28,-3.28 h 162.07 a 3.28,3.28 0 0 1 3.27,3.28 z"
         style="fill:#263238"
         id="path36" />
      <rect
         x="175.67"
         y="284.20999"
         width="31.040001"
         height="5.25"
         style="fill:#655eab"
         id="rect36" />
      <rect
         x="296.17999"
         y="284.20999"
         width="31.040001"
         height="5.25"
         style="fill:#655eab"
         id="rect37" />
      <polygon
         points="244.1,302.54 248.56,302.54 248.56,305.66 251.47,305.66 251.47,302.54 255.94,302.54 255.94,314.61 244.1,314.61 "
         style="fill:#655eab"
         id="polygon37" />
      <g
         style="opacity:0.2"
         id="g38">
        <polygon
           points="244.1,302.54 248.56,302.54 248.56,305.66 251.47,305.66 251.47,302.54 255.94,302.54 255.94,314.61 244.1,314.61 "
           id="polygon38" />
      </g>
      <rect
         x="140.17"
         y="294"
         width="20.17"
         height="6.4699998"
         style="fill:#263238"
         id="rect38" />
      <g
         style="opacity:0.5"
         id="g39">
        <rect
           x="140.17"
           y="294"
           width="20.17"
           height="6.4699998"
           style="fill:#ffffff"
           id="rect39" />
      </g>
      <rect
         x="140.17"
         y="289.89001"
         width="8.0600004"
         height="15.04"
         style="fill:#655eab"
         id="rect40" />
      <rect
         x="121.98"
         y="330.48001"
         width="256.64001"
         height="7.1900001"
         rx="3.5899999"
         style="fill:#655eab"
         id="rect41" />
      <g
         style="opacity:0.3"
         id="g42">
        <rect
           x="121.98"
           y="330.48001"
           width="256.64001"
           height="7.1900001"
           rx="3.5899999"
           style="fill:#ffffff"
           id="rect42" />
      </g>
      <circle
         cx="147.21001"
         cy="348.35999"
         r="3.01"
         style="fill:#263238"
         id="circle42" />
      <circle
         cx="157.08"
         cy="348.35999"
         r="3.01"
         style="fill:#263238"
         id="circle43" />
    </g>
    <g
       id="freepik--Books--inject-2">
      <rect
         x="371.19"
         y="241.23"
         width="29.790001"
         height="195.83"
         rx="2.28"
         style="fill:#655eab"
         id="rect43" />
      <rect
         x="371.20001"
         y="241.23"
         width="29.790001"
         height="195.83"
         rx="2.28"
         style="opacity:0.4;fill:#ffffff"
         id="rect44" />
      <rect
         x="371.20001"
         y="267.79999"
         width="29.790001"
         height="2.77"
         style="fill:#263238"
         id="rect45" />
      <rect
         x="371.20001"
         y="412.19"
         width="29.790001"
         height="11.1"
         style="fill:#263238"
         id="rect46" />
      <rect
         x="371.20001"
         y="403.72"
         width="29.790001"
         height="2.77"
         style="fill:#263238"
         id="rect47" />
      <path
         d="m 437.62,435.73 -24.23,1.19 a 2.75,2.75 0 0 1 -2.89,-2.62 l -8.42,-170.65 -0.14,-2.69 -0.19,-4 -0.13,-2.69 -0.5,-10.05 a 2.76,2.76 0 0 1 2.62,-2.89 l 24.24,-1.2 a 2.75,2.75 0 0 1 2.89,2.62 l 0.5,10.05 0.13,2.69 0.19,4 0.14,2.69 8.42,170.66 a 2.77,2.77 0 0 1 -2.63,2.89 z"
         style="fill:#655eab"
         id="path47" />
      <rect
         x="416.89001"
         y="374.38"
         width="14.94"
         height="52.25"
         rx="0.75"
         transform="rotate(-3.12,424.7086,400.89267)"
         style="opacity:0.2"
         id="rect48" />
      <polygon
         points="431.37,252.81 431.5,255.5 401.75,256.96 401.62,254.28 "
         style="fill:#263238"
         id="polygon48" />
      <polygon
         points="431.69,259.49 431.83,262.17 402.08,263.65 401.94,260.96 "
         style="fill:#263238"
         id="polygon49" />
    </g>
    <g
       id="freepik--Letters--inject-2">
      <path
         d="m 132.21,124.29 c 0,2.48 0.74,3.62 3.14,3.62 v 0.87 c -0.87,-0.08 -1.73,-0.12 -2.56,-0.12 a 13.16,13.16 0 0 0 -4.28,0.58 v -4.87 c -1.41,3.59 -4.13,4.95 -6.76,4.95 a 5.68,5.68 0 0 1 -4.29,-1.57 c -1,-1.1 -1.37,-2.79 -1.37,-5.39 V 112 c 0,-2.47 -0.72,-3.64 -3.11,-3.64 v -0.86 c 0.86,0.08 1.73,0.12 2.55,0.12 a 13.64,13.64 0 0 0 4.29,-0.57 v 16.2 c 0,2.55 0.16,4.73 3.11,4.73 3.22,0 5.58,-3.26 5.58,-7.47 V 112 c 0,-2.47 -0.75,-3.64 -3.14,-3.64 v -0.86 c 0.86,0.08 1.73,0.12 2.55,0.12 a 13.55,13.55 0 0 0 4.29,-0.57 z"
         style="fill:#263238"
         id="path49" />
      <path
         d="M 260.17,104.28 V 105 c -0.89,0.19 -1.89,0.9 -2.66,2.92 l -7.9,20.38 h -0.54 l -8.21,-21.15 c -0.67,-1.71 -1.61,-2.12 -2.31,-2.15 v -0.68 c 0.9,0.07 2.31,0.1 3.59,0.1 1.74,0 3.37,0 4.3,-0.1 V 105 c -1.61,0.06 -2.38,0.31 -2.38,1.25 a 4.47,4.47 0 0 0 0.4,1.57 l 6.09,16.16 5.48,-14.2 a 8.08,8.08 0 0 0 0.68,-2.75 c 0,-1.47 -1,-2 -2.94,-2 v -0.68 c 1.28,0.07 2.69,0.1 3.87,0.1 a 23.57,23.57 0 0 0 2.53,-0.17 z"
         style="fill:#263238"
         id="path50" />
      <path
         d="m 169.37,101.58 c 1.31,1.33 1.65,2.86 1.65,5.77 v 11.46 c 0,1.32 0.32,2 1.27,2 a 2.78,2.78 0 0 0 1.85,-0.87 l 0.46,0.71 a 5.54,5.54 0 0 1 -3.76,1.51 c -2.88,0 -3.54,-1.73 -3.54,-3.67 a 7.2,7.2 0 0 1 -6.34,3.67 c -2.76,0 -5.24,-1.39 -5.24,-4.61 0,-3.22 2.52,-4.71 6.65,-6.44 2.75,-1.15 4.93,-1.85 4.93,-3.51 V 105 c 0,-3.46 -1.69,-4.15 -3.83,-4.15 -1.41,0 -3.14,0.28 -4.08,1.47 a 2.55,2.55 0 0 1 1.93,2.52 2.16,2.16 0 0 1 -2.42,2.23 2.25,2.25 0 0 1 -2.23,-2.55 3.66,3.66 0 0 1 1.93,-2.94 10.59,10.59 0 0 1 5.78,-1.55 7.05,7.05 0 0 1 4.99,1.55 z m -2.07,7.67 c -0.45,0.66 -1.35,1.08 -4,2.35 -1.81,0.87 -4,2.05 -4,5.23 0,2.48 1.41,3.63 3.3,3.63 1.65,0 3.26,-0.87 4.65,-3.12 z"
         style="fill:#263238"
         id="path51" />
      <path
         d="m 119.34,150.05 c 2,2.06 2.57,4.44 2.57,9 v 17.82 c 0,2.06 0.5,3 2,3 a 4.37,4.37 0 0 0 2.88,-1.35 l 0.72,1.09 c -1.78,1.35 -3.13,2.35 -5.86,2.35 -4.47,0 -5.51,-2.69 -5.51,-5.7 a 11.19,11.19 0 0 1 -9.86,5.7 c -4.3,0 -8.15,-2.16 -8.15,-7.17 0,-5.01 3.92,-7.33 10.34,-10 4.29,-1.79 7.67,-2.88 7.67,-5.45 v -4 c 0,-5.39 -2.63,-6.45 -6,-6.45 -2.19,0 -4.89,0.44 -6.36,2.29 a 3.94,3.94 0 0 1 3,3.91 c 0,2.19 -1.47,3.48 -3.76,3.48 -2.29,0 -3.48,-1.66 -3.48,-4 0,-1.88 1.23,-3.35 3,-4.57 a 16.54,16.54 0 0 1 9,-2.42 c 3.63,0.05 6.33,0.99 7.8,2.47 z M 116.11,162 c -0.69,1 -2.1,1.69 -6.14,3.66 -2.82,1.35 -6.23,3.2 -6.23,8.15 0,3.85 2.19,5.63 5.14,5.63 2.56,0 5.07,-1.34 7.23,-4.85 z"
         style="fill:#263238"
         id="path52" />
      <path
         d="m 275.23,142.48 c 5,0.67 6.44,3.13 6.44,5.68 0,3.59 -2.85,6.11 -7.57,6.11 -0.94,0 -2.83,-0.09 -5.42,-0.09 -1.48,0 -3,0 -3.91,0.09 v -0.63 c 2.14,-0.09 2.56,-0.42 2.56,-2.71 V 135.3 c 0,-2.29 -0.42,-2.62 -2.56,-2.71 V 132 c 0.88,0.06 2.47,0.09 3.85,0.09 2,0 4,-0.06 4.75,-0.06 4.42,0 6.65,2 6.65,5 0,2.23 -1.26,4.4 -4.79,5.47 z m -5,-7.18 v 7.12 h 2.12 c 3.71,0 4.63,-2.4 4.63,-5.14 0,-3.09 -1.26,-4.69 -4.41,-4.69 -1.9,0 -2.32,0.54 -2.32,2.71 z m 8.28,12.7 c 0,-3.2 -1.61,-5.06 -5.61,-5.06 h -2.65 v 8 c 0,2.2 0.42,2.62 2.37,2.62 4.12,-0.01 5.89,-2 5.89,-5.56 z"
         style="fill:#263238"
         id="path53" />
      <path
         d="m 188.55,166.3 c -2.06,0.09 -2.46,0.4 -2.46,2.61 V 184 c 0,2.2 0.4,2.51 2.46,2.6 v 0.61 c -1,-0.06 -2.46,-0.09 -3.85,-0.09 -1.59,0 -3,0 -3.88,0.09 v -0.61 c 2.05,-0.09 2.44,-0.4 2.44,-2.6 v -16.28 l -7.3,19.6 h -0.49 l -7.64,-19.69 v 16 c 0,2.22 0.4,2.82 2.75,2.91 v 0.61 c -0.73,-0.06 -2.06,-0.09 -3.09,-0.09 -1.03,0 -2.15,0 -2.82,0.09 v -0.61 c 2.06,-0.09 2.46,-0.69 2.46,-2.91 v -14.72 c 0,-2.21 -0.4,-2.52 -2.46,-2.61 v -0.61 c 0.67,0.06 1.79,0.09 2.82,0.09 0.88,0 1.92,0 2.59,-0.09 l 6.66,17.6 6.52,-17.51 h 1.44 c 1.39,0 2.9,0 3.85,-0.09 z"
         style="fill:#263238"
         id="path54" />
      <path
         d="m 299.89,177.69 c 0,8.29 -5,13.77 -13.78,13.77 -1.15,0 -3.7,-0.11 -5.34,-0.11 -1.64,0 -3.66,0 -4.72,0.11 v -0.76 c 2.59,-0.11 3.09,-0.5 3.09,-3.27 v -18.89 c 0,-2.77 -0.5,-3.16 -3.09,-3.27 v -0.76 c 0.88,0.05 2.31,0.13 3.72,0.13 h 0.93 c 1.75,0 4.3,-0.11 5.75,-0.11 9.07,-0.02 13.44,4.66 13.44,13.16 z m -17.22,-9.22 v 19 c 0,2.66 0.5,3.28 2.86,3.28 8.3,0 10.55,-4.65 10.55,-12.94 0,-8.54 -2.7,-12.65 -10.58,-12.65 -2.33,0.03 -2.83,0.68 -2.83,3.31 z"
         style="fill:#263238"
         id="path55" />
      <path
         d="m 166.93,137.44 c -1.28,0.05 -1.53,0.25 -1.53,1.62 v 9.33 c 0,1.37 0.25,1.56 1.53,1.56 h 1.37 c 2.36,0 2.82,-0.9 3.09,-3.52 h 0.43 c 0,0.4 0,0.94 0,1.54 0,0.6 0,1.46 0.13,2.41 -1.28,0 -3.05,0 -4.31,0 -1.26,0 -3.61,0 -5.46,0 V 150 c 1.28,-0.05 1.53,-0.24 1.53,-1.61 v -9.33 c 0,-1.37 -0.25,-1.57 -1.53,-1.62 v -0.38 c 0.53,0 1.44,0.06 2.41,0.06 0.97,0 1.81,0 2.39,-0.06 z"
         style="fill:#263238"
         id="path56" />
      <path
         d="m 260.07,168.76 c -1.39,0.06 -1.66,0.27 -1.66,1.76 v 10.21 c 0,1.5 0.27,1.71 1.66,1.71 h 1.51 c 2.57,0 3.08,-1 3.37,-3.85 h 0.48 c 0,0.43 -0.06,1 -0.06,1.69 0,0.51 0,1.58 0.14,2.63 -1.4,-0.06 -3.34,-0.06 -4.71,-0.06 -1.37,0 -3.95,0 -6,0.06 v -0.41 c 1.4,-0.06 1.67,-0.27 1.67,-1.77 v -10.21 c 0,-1.49 -0.27,-1.7 -1.67,-1.76 v -0.41 c 0.57,0 1.57,0.06 2.63,0.06 1.06,0 2,0 2.61,-0.06 z"
         style="fill:#263238"
         id="path57" />
      <path
         d="m 152.66,161 v 0.35 c -0.46,0.1 -1,0.47 -1.38,1.51 l -4.08,10.54 h -0.28 l -4.25,-10.94 c -0.35,-0.88 -0.83,-1.09 -1.2,-1.11 V 161 c 0.47,0 1.2,0.05 1.86,0.05 0.9,0 1.74,0 2.23,-0.05 v 0.35 c -0.83,0 -1.23,0.16 -1.23,0.64 a 2.28,2.28 0 0 0 0.2,0.82 l 3.15,8.36 2.84,-7.35 a 4.18,4.18 0 0 0 0.35,-1.42 c 0,-0.76 -0.53,-1 -1.52,-1.05 V 161 c 0.66,0 1.39,0.05 2,0.05 0.61,0 0.96,0.01 1.31,-0.05 z"
         style="fill:#263238"
         id="path58" />
      <path
         d="m 232.22,142.06 c 0,1.27 0.38,1.86 1.61,1.86 v 0.45 c -0.45,0 -0.89,-0.06 -1.31,-0.06 a 6.72,6.72 0 0 0 -2.21,0.3 v -2.51 a 3.64,3.64 0 0 1 -3.47,2.55 2.91,2.91 0 0 1 -2.2,-0.81 3.93,3.93 0 0 1 -0.7,-2.77 v -5.31 c 0,-1.27 -0.37,-1.87 -1.6,-1.87 v -0.45 a 11.62,11.62 0 0 0 1.31,0.07 7.29,7.29 0 0 0 2.2,-0.29 v 8.32 c 0,1.31 0.08,2.43 1.6,2.43 1.52,0 2.86,-1.68 2.86,-3.84 v -4.37 c 0,-1.27 -0.38,-1.87 -1.61,-1.87 v -0.45 a 11.88,11.88 0 0 0 1.31,0.07 7.31,7.31 0 0 0 2.21,-0.29 z"
         style="fill:#263238"
         id="path59" />
      <path
         d="m 203.35,128 c 4.92,0.65 6.34,3.08 6.34,5.6 0,3.54 -2.8,6 -7.46,6 -0.93,0 -2.8,-0.1 -5.35,-0.1 -1.45,0 -3,0 -3.85,0.1 V 139 c 2.11,-0.09 2.52,-0.41 2.52,-2.67 v -15.4 c 0,-2.26 -0.41,-2.58 -2.52,-2.67 v -0.63 c 0.86,0.06 2.43,0.1 3.79,0.1 2,0 4,-0.07 4.69,-0.07 4.36,0 6.56,2 6.56,4.89 0,2.2 -1.24,4.34 -4.72,5.41 z m -4.92,-7.09 v 7 h 2.1 c 3.65,0 4.57,-2.37 4.57,-5.07 0,-3.06 -1.25,-4.63 -4.36,-4.63 -1.9,0.05 -2.31,0.58 -2.31,2.72 z m 8.15,12.55 c 0,-3.16 -1.59,-5 -5.54,-5 h -2.61 v 7.86 c 0,2.17 0.41,2.58 2.34,2.58 4.07,0.03 5.81,-1.9 5.81,-5.42 z"
         style="fill:#263238"
         id="path60" />
      <path
         d="m 237.37,165.91 a 1.92,1.92 0 0 0 1,0.42 c 0.37,0 0.53,-0.45 0.64,-1.3 h 0.68 c -0.09,1 -0.14,2.3 -0.14,6 h -0.68 c -0.22,-2.81 -1.57,-5.67 -4.84,-5.67 a 3.36,3.36 0 0 0 -3.6,3.42 c 0,2.68 2.31,3.75 5,5.4 3.06,1.92 5.31,3.47 5.31,6.64 0,3.74 -2.84,5.6 -6.26,5.6 a 6.91,6.91 0 0 1 -4,-1.09 1.93,1.93 0 0 0 -1,-0.42 c -0.38,0 -0.54,0.44 -0.65,1.29 h -0.68 c 0.09,-1.21 0.12,-2.9 0.12,-7.07 h 0.67 c 0.25,3.57 1.6,6.7 5.37,6.7 a 3.63,3.63 0 0 0 3.83,-3.93 c 0,-2.39 -1.85,-3.74 -4.59,-5.39 -2.74,-1.65 -5.25,-3.28 -5.25,-6.6 0,-3.49 2.63,-5.12 5.54,-5.12 a 5.57,5.57 0 0 1 3.53,1.12 z"
         style="fill:#263238"
         id="path61" />
      <path
         d="m 212.85,171.67 a 5.77,5.77 0 0 1 -5.51,4 c -4.28,0 -6.78,-3.13 -6.78,-7.65 0,-5.18 2.62,-8.36 6.66,-8.36 3.46,0 5.52,2 5.52,6.48 h -9.22 a 15.82,15.82 0 0 0 -0.1,1.88 c 0,4.05 2.25,6.41 4.51,6.41 a 4.48,4.48 0 0 0 4.33,-2.95 z m -9.37,-6.14 h 6.42 c 0.1,-2.88 -0.82,-5.35 -2.79,-5.35 -1.76,0 -3.31,1.64 -3.63,5.35 z"
         style="fill:#263238"
         id="path62" />
    </g>
  </g>
</svg>
